<svg width="115" height="24" viewBox="0 0 115 24" fill="none" xmlns="http://www.w3.org/2000/svg">
<path d="M13 11H17V13H13V11ZM22 20V22H15C15 22.55 14.55 23 14 23H10C9.45 23 9 22.55 9 22H2V20H9C9 19.45 9.45 19 10 19H11V17H4V10C4 9.46957 4.21071 8.96086 4.58579 8.58579C4.96086 8.21071 5.46957 8 6 8H7V2H17V8H18C18.5304 8 19.0391 8.21071 19.4142 8.58579C19.7893 8.96086 20 9.46957 20 10V17H13V19H14C14.55 19 15 19.45 15 20H22ZM9 8H15V4H9V8ZM18 15V10H6V15H18Z" fill="#8488F5"/>
<path d="M32.148 17V7.06H35.298C35.9793 7.06 36.5813 7.19067 37.104 7.452C37.6267 7.71333 38.0327 8.07733 38.322 8.544C38.6113 9.01067 38.756 9.566 38.756 10.21C38.756 10.8447 38.6113 11.3953 38.322 11.862C38.0327 12.3287 37.6267 12.6927 37.104 12.954C36.5813 13.206 35.9793 13.332 35.298 13.332H33.884V17H32.148ZM33.884 11.75H35.116C35.7413 11.75 36.2033 11.6193 36.502 11.358C36.81 11.0873 36.964 10.7047 36.964 10.21C36.964 9.69667 36.81 9.30933 36.502 9.048C36.2033 8.78667 35.7413 8.656 35.116 8.656H33.884V11.75ZM42.8385 17.168C42.1199 17.168 41.5505 16.93 41.1305 16.454C40.7199 15.9687 40.5145 15.2827 40.5145 14.396V9.524H42.1665V13.962C42.1665 14.5873 42.2692 15.0447 42.4745 15.334C42.6892 15.614 43.0112 15.754 43.4405 15.754C43.8885 15.754 44.2525 15.5953 44.5325 15.278C44.8219 14.9513 44.9665 14.494 44.9665 13.906V9.524H46.6325V17H45.0925L45.0645 14.942L45.2745 15.012C45.1532 15.7027 44.8825 16.2347 44.4625 16.608C44.0425 16.9813 43.5012 17.168 42.8385 17.168ZM51.3591 17V9.3C51.3591 9.02 51.2797 8.80067 51.1211 8.642C50.9717 8.48333 50.7524 8.404 50.4631 8.404H48.7971V7.06H50.7151C51.4711 7.06 52.0404 7.256 52.4231 7.648C52.8151 8.03067 53.0111 8.60467 53.0111 9.37V17H51.3591ZM48.5171 17V15.656H55.4611V17H48.5171ZM60.4816 17.168C59.7816 17.168 59.1936 17.056 58.7176 16.832C58.2416 16.608 57.8729 16.3047 57.6116 15.922C57.3503 15.5393 57.2009 15.1147 57.1636 14.648L58.8156 14.578C58.8903 14.9327 59.0629 15.2173 59.3336 15.432C59.6043 15.6373 59.9916 15.74 60.4956 15.74C60.9623 15.74 61.3123 15.6793 61.5456 15.558C61.7883 15.4273 61.9096 15.236 61.9096 14.984C61.9096 14.8253 61.8676 14.69 61.7836 14.578C61.7089 14.466 61.5549 14.3727 61.3216 14.298C61.0883 14.214 60.7429 14.1253 60.2856 14.032C59.5389 13.8827 58.9509 13.71 58.5216 13.514C58.0923 13.318 57.7843 13.0707 57.5976 12.772C57.4203 12.4733 57.3316 12.1093 57.3316 11.68C57.3316 11.2413 57.4436 10.8493 57.6676 10.504C57.8916 10.1493 58.2229 9.86933 58.6616 9.664C59.1096 9.45867 59.6603 9.356 60.3136 9.356C61.0229 9.356 61.6016 9.47267 62.0496 9.706C62.4976 9.93933 62.8383 10.2427 63.0716 10.616C63.3143 10.9893 63.4636 11.3907 63.5196 11.82L61.8536 11.904C61.8069 11.6893 61.7183 11.498 61.5876 11.33C61.4569 11.162 61.2843 11.0313 61.0696 10.938C60.8549 10.8353 60.6076 10.784 60.3276 10.784C59.8703 10.784 59.5389 10.8727 59.3336 11.05C59.1283 11.2273 59.0256 11.4373 59.0256 11.68C59.0256 11.876 59.0769 12.0393 59.1796 12.17C59.2916 12.2913 59.4736 12.394 59.7256 12.478C59.9776 12.562 60.3276 12.646 60.7756 12.73C61.5129 12.87 62.0869 13.0333 62.4976 13.22C62.9083 13.4067 63.1929 13.64 63.3516 13.92C63.5196 14.2 63.6036 14.55 63.6036 14.97C63.6036 15.4273 63.4776 15.8193 63.2256 16.146C62.9736 16.4727 62.6143 16.7247 62.1476 16.902C61.6809 17.0793 61.1256 17.168 60.4816 17.168ZM68.8481 17.168C68.1481 17.168 67.5321 17.0093 67.0001 16.692C66.4775 16.3747 66.0715 15.922 65.7821 15.334C65.4928 14.746 65.3481 14.0553 65.3481 13.262C65.3481 12.478 65.4928 11.7967 65.7821 11.218C66.0715 10.63 66.4728 10.1727 66.9861 9.846C67.5088 9.51933 68.1201 9.356 68.8201 9.356C69.4921 9.356 70.0848 9.51467 70.5981 9.832C71.1208 10.1493 71.5268 10.602 71.8161 11.19C72.1148 11.778 72.2641 12.478 72.2641 13.29V13.724H67.0561C67.1028 14.3587 67.2848 14.844 67.6021 15.18C67.9288 15.516 68.3535 15.684 68.8761 15.684C69.2775 15.684 69.6088 15.5907 69.8701 15.404C70.1408 15.208 70.3275 14.956 70.4301 14.648L72.1241 14.774C71.8908 15.5207 71.4941 16.1087 70.9341 16.538C70.3741 16.958 69.6788 17.168 68.8481 17.168ZM67.0701 12.52H70.4721C70.4255 11.9507 70.2528 11.5307 69.9541 11.26C69.6555 10.98 69.2728 10.84 68.8061 10.84C68.3395 10.84 67.9521 10.9847 67.6441 11.274C67.3455 11.554 67.1541 11.9693 67.0701 12.52ZM74.0367 17V7.06H77.0047C78.106 7.06 78.946 7.29333 79.5247 7.76C80.1033 8.21733 80.3927 8.88 80.3927 9.748C80.3927 10.1493 80.2993 10.5133 80.1127 10.84C79.9353 11.1573 79.6647 11.414 79.3007 11.61C78.946 11.7967 78.5073 11.904 77.9847 11.932V11.834C78.6193 11.8527 79.142 11.9647 79.5527 12.17C79.9727 12.3753 80.2853 12.66 80.4907 13.024C80.7053 13.3787 80.8127 13.7893 80.8127 14.256C80.8127 15.1427 80.5093 15.824 79.9027 16.3C79.296 16.7667 78.4373 17 77.3267 17H74.0367ZM75.7587 15.432H77.3267C77.9053 15.4227 78.33 15.306 78.6007 15.082C78.8807 14.8487 79.0207 14.5267 79.0207 14.116C79.0207 13.6773 78.876 13.3367 78.5867 13.094C78.3067 12.8513 77.8867 12.73 77.3267 12.73H75.7587V15.432ZM75.7587 11.19H77.0047C77.5553 11.19 77.9567 11.078 78.2087 10.854C78.47 10.63 78.6007 10.3127 78.6007 9.902C78.6007 9.49133 78.47 9.17867 78.2087 8.964C77.9567 8.74 77.5553 8.628 77.0047 8.628H75.7587V11.19ZM85.5672 17.168C84.8672 17.168 84.2512 17.0093 83.7192 16.692C83.1965 16.3747 82.7905 15.922 82.5012 15.334C82.2119 14.746 82.0672 14.0553 82.0672 13.262C82.0672 12.4687 82.2119 11.778 82.5012 11.19C82.7905 10.602 83.1965 10.1493 83.7192 9.832C84.2512 9.51467 84.8672 9.356 85.5672 9.356C86.2672 9.356 86.8785 9.51467 87.4012 9.832C87.9332 10.1493 88.3439 10.602 88.6332 11.19C88.9225 11.7687 89.0672 12.4593 89.0672 13.262C89.0672 14.0553 88.9225 14.746 88.6332 15.334C88.3439 15.922 87.9332 16.3747 87.4012 16.692C86.8785 17.0093 86.2672 17.168 85.5672 17.168ZM85.5672 15.684C86.1365 15.684 86.5752 15.474 86.8832 15.054C87.1912 14.6247 87.3452 14.0273 87.3452 13.262C87.3452 12.4967 87.1912 11.904 86.8832 11.484C86.5752 11.0547 86.1365 10.84 85.5672 10.84C84.9979 10.84 84.5592 11.0547 84.2512 11.484C83.9432 11.904 83.7892 12.4967 83.7892 13.262C83.7892 14.0273 83.9432 14.6247 84.2512 15.054C84.5592 15.474 84.9979 15.684 85.5672 15.684ZM92.9257 17.168C92.4591 17.168 92.0391 17.084 91.6657 16.916C91.2924 16.748 90.9937 16.51 90.7697 16.202C90.5457 15.8847 90.4337 15.5113 90.4337 15.082C90.4337 14.4473 90.6297 13.9573 91.0217 13.612C91.4231 13.2573 91.9971 13.0007 92.7437 12.842L95.0817 12.352C95.0817 11.8293 94.9697 11.4327 94.7457 11.162C94.5311 10.882 94.1904 10.742 93.7237 10.742C93.2944 10.742 92.9631 10.8447 92.7297 11.05C92.4964 11.2553 92.3424 11.526 92.2677 11.862L90.5457 11.764C90.6857 11.0453 91.0311 10.4667 91.5817 10.028C92.1417 9.58 92.8464 9.356 93.6957 9.356C94.7131 9.356 95.4737 9.62667 95.9777 10.168C96.4817 10.7093 96.7337 11.4653 96.7337 12.436V15.222C96.7337 15.4087 96.7711 15.5393 96.8457 15.614C96.9204 15.6793 97.0231 15.712 97.1537 15.712H97.5177V17C97.4617 17.0093 97.3684 17.0187 97.2377 17.028C97.1164 17.0467 96.9904 17.056 96.8597 17.056C96.5051 17.056 96.2017 16.9953 95.9497 16.874C95.7071 16.7527 95.5204 16.5707 95.3897 16.328C95.2591 16.076 95.1891 15.768 95.1797 15.404H95.3897C95.3431 15.74 95.2077 16.0433 94.9837 16.314C94.7597 16.5753 94.4704 16.7853 94.1157 16.944C93.7704 17.0933 93.3737 17.168 92.9257 17.168ZM93.2197 15.88C93.6211 15.88 93.9617 15.81 94.2417 15.67C94.5217 15.5207 94.7317 15.3153 94.8717 15.054C95.0117 14.7833 95.0817 14.4613 95.0817 14.088V13.584L93.2197 13.976C92.8184 14.0507 92.5384 14.172 92.3797 14.34C92.2304 14.4987 92.1557 14.7133 92.1557 14.984C92.1557 15.264 92.2491 15.4833 92.4357 15.642C92.6224 15.8007 92.8837 15.88 93.2197 15.88ZM101.096 17V9.524H102.356L102.482 11.456H102.356C102.45 10.8027 102.646 10.3173 102.944 10C103.252 9.68267 103.686 9.524 104.246 9.524H105.884V10.91H104.344C103.99 10.91 103.696 10.9753 103.462 11.106C103.229 11.2367 103.052 11.428 102.93 11.68C102.809 11.932 102.748 12.2493 102.748 12.632V17H101.096ZM99.2483 17V15.656H105.058V17H99.2483ZM99.2483 10.868V9.524H102.062V10.868H99.2483ZM110.051 17.168C109.425 17.168 108.884 17.014 108.427 16.706C107.969 16.3887 107.615 15.9407 107.363 15.362C107.12 14.774 106.999 14.074 106.999 13.262C106.999 12.45 107.12 11.7547 107.363 11.176C107.615 10.588 107.969 10.14 108.427 9.832C108.884 9.51467 109.425 9.356 110.051 9.356C110.573 9.356 111.026 9.47733 111.409 9.72C111.801 9.95333 112.085 10.238 112.263 10.574V7.06H113.915V17H112.347L112.305 15.838C112.109 16.23 111.815 16.552 111.423 16.804C111.04 17.0467 110.583 17.168 110.051 17.168ZM110.443 15.684C110.807 15.684 111.124 15.586 111.395 15.39C111.675 15.194 111.889 14.9187 112.039 14.564C112.188 14.2 112.263 13.766 112.263 13.262C112.263 12.7487 112.188 12.3147 112.039 11.96C111.889 11.596 111.675 11.3207 111.395 11.134C111.124 10.938 110.797 10.84 110.415 10.84C109.883 10.84 109.467 11.0547 109.169 11.484C108.87 11.904 108.721 12.4967 108.721 13.262C108.721 14.0273 108.87 14.6247 109.169 15.054C109.467 15.474 109.892 15.684 110.443 15.684Z" fill="#8488F5"/>
</svg>
